<svg id="b0b4a6de-efc8-4d94-b390-8451d3af594f" xmlns="http://www.w3.org/2000/svg" viewBox="0 0 283.46 115.22">
  <path class="b274baf9-231a-4e16-a7db-d3b2b2e45cdf" fill="currentColor" d="M118.46 57.31a6.38 6.38 0 00-5.88-.61c-1.94.79-3.67 2.7-5 5.38.24-2.95.52-5.61.84-7.89v-.14a2.41 2.41 0 00.07-.5.86.86 0 00-.32-.7 1.28 1.28 0 00-1.4 0c-1.67.68-2.74 2.17-3.19 4.4-1.38 8.09-2.37 22.46-2.37 35.74 0 5.84.19 11.47.62 16.25.39 4.18 3.13 5.48 4.29 5.84a1.51 1.51 0 001.44-.16 1.39 1.39 0 00.32-1.27c-.77-7.25-1.18-16.5-1.22-27.47.22.19.43.39.67.57a7.38 7.38 0 006.94.7c3.81-1.53 6.8-5.86 8.19-11.86 1.97-8.48.39-15.68-4-18.28zm-1.1 15.3c-1 5.13-3 9-5.46 10.48a2.67 2.67 0 01-2.15.4c-1.65-.55-2.51-3.32-2.26-7.22.5-7.37 3.56-12.8 6.38-14.91a2.84 2.84 0 012-.76c.86.27 2.78 5.09 1.49 12.01zM183.15 62.64l-2.24-1.42c-11.59-7.34-26-16.46-26.23-28.4a23 23 0 016.49-16 21.49 21.49 0 0115.18-6.71 15.08 15.08 0 0111.27 4.52 19.51 19.51 0 015.43 14.05c-.11 4.15-1.47 9.73-4.27 12.89-.76.93-.64 1.58-.39 2 .49.78 1.65.71 2.12.61 5.54-.79 9.88-8.18 9.88-16.85 0-10-6.17-21.71-23.58-21.82a30 30 0 00-21.28 8.63 26.28 26.28 0 00-8 18.72c0 15.36 14.5 24.53 26.16 31.91l5 3.2c9.05 6 13.16 10.1 10.52 16.27-2.16 5-10.73 6.12-17.4 5.51s-15-2.94-16.57-10.64c-.28-1.49-1.14-1.62-1.49-1.6-1.29.06-1.91 2-2.07 3.57a12.2 12.2 0 003.08 8.82c3.29 3.77 8.66 5.87 16 6.25 8 .42 18.82-1.93 23.05-10 3.26-6.21 4.55-13.84-10.66-23.51zM51.14 59.23a5.71 5.71 0 005-2.79 1.55 1.55 0 00.36-.93 1.27 1.27 0 00-.09-.47 1.66 1.66 0 00-1.41-.88 28.48 28.48 0 00-4-.33C51 33 52 11.64 53.36 1.74v.05a1.47 1.47 0 00-.42-1.51A1.35 1.35 0 0051.5.14c-2.77 1.1-3.56 3.56-3.94 5.58-1.64 8.35-3 27.5-3.4 47.83a185.94 185.94 0 00-26 1.2v-5.3c0-16.56.82-32.62 2.15-41.33V8a1.52 1.52 0 00-.64-1.36 1.4 1.4 0 00-1.41 0 6.78 6.78 0 00-3.87 5.44c-1.89 8.59-3.2 26.1-3.39 43.72a41.91 41.91 0 00-6 1.34C2.17 58 .6 61 .09 63.55a2.64 2.64 0 00-.09.7 1.53 1.53 0 00.46 1.16 2 2 0 001.91.17A51.46 51.46 0 0111 63.22 187.2 187.2 0 0012.22 86c.64 5.11 3.68 6.67 6.11 7.09a1.8 1.8 0 001.59-.37 1.4 1.4 0 00.37-1 3.32 3.32 0 000-.43 281.71 281.71 0 01-2.08-29.41A215.91 215.91 0 0144 59.41c0 13 .45 23 1.3 29.51.63 5.18 3.47 6.78 5.74 7.2a2.08 2.08 0 001.84-.37 1.33 1.33 0 00.36-1 2.06 2.06 0 000-.34c-1.24-8.55-1.95-21.04-2.1-35.18z"/>
  <path class="b274baf9-231a-4e16-a7db-d3b2b2e45cdf" fill="currentColor" d="M275.45 71.94c-3.25-7.43-3.95-12.74-1.91-14.58h-.05a1.82 1.82 0 00.76-1.26 1.51 1.51 0 00-.48-1.18 4 4 0 00-2.72-1.39 3.53 3.53 0 00-2.59 1.07c-2.94 2.73-5.23 7.92-7 15.79-.08-.06-.14-.15-.24-.17a1.16 1.16 0 00-1.16.43 4.61 4.61 0 00-1 3.13 10.79 10.79 0 00.26 2.25 17 17 0 01.47 1.94c-.07.21-.19.65-.19.65-.14.45-.28.89-.37 1.32a10.68 10.68 0 01-3.79 4.34 2.77 2.77 0 01-2.21.38c-1.41-.44-3.24-3.46-4-8.22a15.33 15.33 0 008-10.54 13.27 13.27 0 00.26-2.64 11.33 11.33 0 00-2.68-7.58 6.34 6.34 0 00-4.6-2.46 6.26 6.26 0 00-4.55 2.12 20.35 20.35 0 00-3.91 6.77 277.37 277.37 0 012.62-32.91v.07a1.23 1.23 0 00-.23-1.19 1.25 1.25 0 00-1.22-.32h-.16a5.69 5.69 0 00-3.3 4.53c-2.47 11.37-3.55 28.87-2.83 43.56-1.5 3.68-4.31 7-6.93 8.16a3.9 3.9 0 01-3.4 0c-2-1-3.15-5.13-3-10.55.26-6.82 2.85-12.5 4.62-14a1.16 1.16 0 01.67-.33c.1 0 .25.12.42.38.8 1.32 1.16 5.32-.29 9.37v.06a1.06 1.06 0 00.13 1c.28.37.71.37 1.19.37 2.19-.14 4.46-2.74 4.46-6.86a8.79 8.79 0 00-4.44-7.47 5 5 0 00-5-.2 9.61 9.61 0 00-3.69 3.52c-1.76 2.26-4.55 6-4.71 6.2s-1 1-1.12 1.16c-.89-3.72-2.55-6.62-4.65-8a4.4 4.4 0 00-2.79-.83 2.9 2.9 0 00-3.35-.72c-3.14 1.68-6.17 7.57-6.91 13.43-1.46 12.3 4.71 15.78 7.43 16.71a6.76 6.76 0 006.56-1c2.94-2.3 4.54-6.85 4.54-12.71 0-.88 0-1.8-.12-2.74.63-.69 1.22-1.26 1.84-2.06-.13.77-.23 1.55-.3 2.36-1.13 12.49 4.71 16 8.29 17a9.44 9.44 0 007.52-.93 11.17 11.17 0 003.58-3.65 1.09 1.09 0 010 .18c.44 4 2.39 5.27 4.24 6H241.59a1.65 1.65 0 001.44-.34 1.32 1.32 0 00.3-1.21c-2.55-16.26 3.35-28.41 7.09-30.09a1.06 1.06 0 011.43.24c.74.91.93 2.89.47 5.05a15 15 0 01-7.8 10.16h-.05a2.45 2.45 0 00-1.12 2.46c.83 6.7 4.51 11.64 9.38 12.54a8.36 8.36 0 007-1.56 10 10 0 002.68-3.47 9.94 9.94 0 006 4.61 7.7 7.7 0 006.89-2.11c2.95-2.66 3.01-7.43.15-14.04zm-67.39-10.58c1 .23 2.17 2.58 2.77 6.33a6.22 6.22 0 01-2.5-3.3 7.06 7.06 0 01-.41-2.22 1.62 1.62 0 01.14-.81zm3.15 11.38c0 5.68-1.61 9.61-3.18 10.91a1.55 1.55 0 01-1.34.43c-.76-.16-3.3-2.92-3.3-9 0-.68 0-1.41.1-2.17a27.47 27.47 0 011.12-5.77 7.67 7.67 0 006.61 5.49zM272.5 83.5a1.76 1.76 0 01-1.51.35c-2-.29-5.06-2.49-7.12-6.62v-.17a1.48 1.48 0 000-.21c.11-.46.27-1.1.27-1.1a75.87 75.87 0 013.16-11A30.08 30.08 0 00270 74l.28.65c1.43 3.16 3.35 7.55 2.22 8.85zM95.83 57.31A6.35 6.35 0 0090 56.7c-1.93.79-3.67 2.7-5 5.38.24-2.95.52-5.62.84-7.89v-.14a2.41 2.41 0 00.07-.5.88.88 0 00-.31-.7 1.3 1.3 0 00-1.41 0c-1.67.68-2.74 2.17-3.19 4.4a188.33 188.33 0 00-2 21c-1.15 3.18-2.81 4.86-3.37 4.81a.85.85 0 01-.32-.36c-1.49-2.41-2.14-12.63.27-22.54a1.3 1.3 0 00-.27-1.23 1.24 1.24 0 00-1.2-.28A4.5 4.5 0 0072 59.88a7.14 7.14 0 00-2.49-2.68 5.61 5.61 0 00-5.23-.34c-3.71 1.53-6.81 6.33-8.51 13.16-2.59 10.58.92 16 5.06 17.51a6.54 6.54 0 005.61-.08c1.6-.86 2.85-2.55 3.74-5a7.5 7.5 0 004.43 4.69 5 5 0 004.05-.14c0 2-.07 4-.07 6 0 5.84.19 11.47.62 16.25.4 4.18 3.13 5.48 4.29 5.84a1.51 1.51 0 001.44-.16 1.39 1.39 0 00.32-1.27c-.77-7.25-1.17-16.5-1.22-27.47.22.19.44.39.68.57a7.35 7.35 0 006.93.7c3.81-1.53 6.8-5.86 8.19-11.86 1.97-8.49.4-15.69-4.01-18.29zM69.3 67.41c-.38 8.62-3 14.49-5.33 16.3a1.74 1.74 0 01-1.23.47c-1.09-.24-2.4-2.25-2.4-6.57a27.82 27.82 0 01.42-4.61c.94-5.83 3.79-10.93 5.89-12.31.47-.31.7-.29.76-.27 1.07.26 2.08 2.77 1.89 6.99zm25.44 5.2c-.95 5.13-3 9-5.46 10.48a2.66 2.66 0 01-2.15.4c-1.65-.55-2.51-3.32-2.26-7.22.5-7.37 3.57-12.8 6.38-14.91a2.85 2.85 0 012-.76c.86.27 2.75 5.09 1.49 12.01zM143 58.44v-.09a1.27 1.27 0 00-.4-1.08 1.49 1.49 0 00-1.32-.14c-1.84.36-2.93 1.62-3.59 4.2a76.93 76.93 0 00-1.14 9.3l-.32 3.48c-.89 9.07-2.89 9.89-3.28 10-.61.13-1.41-.82-2.05-2.41-2-5-1.2-17.56.15-24.29a1.14 1.14 0 00-1.55-1.48c-1.49.23-2.71 1.66-3.25 3.82-2.24 9.6-2.61 21.91 1 26.85a4.94 4.94 0 007 1.19 9.47 9.47 0 002.51-2.67c.13 3.93.34 7.46.63 10.71.17 2 .26 3.73.26 5.22 0 4-.64 6.26-2 7.18a2.71 2.71 0 01-2.6.24c-2.63-1-5-4.86-6.28-10.32-.23-1-.86-1.21-1.13-1.24a1.39 1.39 0 00-1.36.87c-.55 1.1-1 3.17-.27 6.82.93 4.28 3.25 7.49 6.24 8.56 1.64.59 4.23.8 7.29-1.6s6.29-6.94 5.38-15.87c-.56-6.19-1.82-22.1.08-37.25zM279.18 55a4.36 4.36 0 114.28-4.36 4.24 4.24 0 01-4.28 4.36zm0-8a3.6 3.6 0 103.49 3.59 3.39 3.39 0 00-3.49-3.59zm1 5.8l-.76-1.67h-.89v1.67h-.79v-4.54h1.67a1.45 1.45 0 011.59 1.42 1.34 1.34 0 01-.82 1.31l.82 1.81zm-.81-3.8h-.88v1.4h.88c.48 0 .79-.21.79-.71a.7.7 0 00-.79-.69z"/>
</svg>
